<svg  height="512" viewBox="0 0 44 60" width="512" xmlns="http://www.w3.org/2000/svg"><g id="Page-1"  fill-rule="evenodd"><g id="028---Vet-Location" fill="rgb(0,0,0)" fill-rule="nonzero"><path fill="#e7eefb" id="Shape" d="m19.231 58h-5.231c-.5522847 0-1 .4477153-1 1s.4477153 1 1 1h16c.5522847 0 1-.4477153 1-1s-.4477153-1-1-1h-5.231c5.455-4.783 19.231-18.584 19.231-36 0-12.1502645-9.8497355-22-22-22s-22 9.8497355-22 22c0 17.416 13.776 31.217 19.231 36zm-17.231-36c0-11.045695 8.954305-20 20-20s20 8.954305 20 20c0 18.261-16.591 32.9-20 35.717-3.409-2.817-20-17.456-20-35.717z"/><path fill="#e7eefb" id="Shape" d="m40 22c0-9.9411255-8.0588745-18-18-18s-18 8.0588745-18 18 8.0588745 18 18 18c9.9363282-.0115721 17.9884279-8.0636718 18-18zm-34 0c0-8.836556 7.163444-16 16-16s16 7.163444 16 16-7.163444 16-16 16c-8.8322157-.0104696-15.98953038-7.1677843-16-16z"/><path fill="#e7eefb" id="Shape" d="m23.737 33.43c.7773763.355072 1.6186302.548972 2.473.57 1.4407028.0891244 2.7892952-.7120982 3.4-2.02.7266761-1.9080777.3635542-4.0600243-.949-5.624-.4692538-.6136086-.8822573-1.268256-1.234-1.956-1.093-1.958-2.452-4.4-5.427-4.4s-4.334 2.442-5.427 4.4c-.3509954.6862489-.7629876 1.3395461-1.231 1.952-1.3125542 1.5639757-1.6756761 3.7159223-.949 5.624.6090809 1.3083993 1.9564132 2.1111667 3.397 2.024.8543698-.021028 1.6956237-.214928 2.473-.57.5442102-.2586337 1.1349824-.4048813 1.737-.43.6020176.0251187 1.1927898.1713663 1.737.43zm-4.21-1.86c-.5442102.2586337-1.1349824.4048813-1.737.43-.6576531.0777003-1.2926944-.2682849-1.584-.863-.4017973-1.2006886-.1498752-2.5239425.665-3.493.5526855-.7093522 1.0381145-1.4686301 1.45-2.268 1.17-2.1 2-3.376 3.679-3.376s2.509 1.276 3.679 3.376c.4118855.7993699.8973145 1.5586478 1.45 2.268.8148752.9690575 1.0667973 2.2923114.665 3.493-.2913056.5947151-.9263469.9407003-1.584.863-.6020176-.0251187-1.1927898-.1713663-1.737-.43-.7773763-.355072-1.6186302-.548972-2.473-.57-.8543698.021028-1.6956237.214928-2.473.57z"/><path fill="#e7eefb" id="Shape" d="m17.3 19.949c.1846728.0001185.3690153-.0156058.551-.047 2.172-.377 3.558-2.893 3.087-5.609s-2.618-4.623-4.795-4.245c-1.1446672.2325882-2.1114157.9938192-2.606 2.052-.5372009 1.1053488-.7047801 2.3541294-.478 3.562.43 2.481 2.268 4.287 4.241 4.287zm-1.982-6.949c.2175559-.4909506.6491531-.8543037 1.17-.985.07264-.0127289.1462532-.0190865.22-.019 1 0 2 1.142 2.263 2.634.277 1.6-.391 3.112-1.458 3.3s-2.205-1.013-2.484-2.615c-.1500952-.7828383-.0489452-1.5930876.289-2.315z"/><path fill="#e7eefb" id="Shape" d="m9.946 26.35c.5506123.3671207 1.1962492.5658851 1.858.572.3157236-.0000466.6296183-.0479231.931-.142 1.9279598-.7554849 2.8895656-2.9212156 2.157-4.858-.4941262-2.0112372-2.5139807-3.2509669-4.531-2.781-1.92770899.7562788-2.88843637 2.9224849-2.155 4.859.28844132.9621582.90388137 1.793356 1.74 2.35zm1.009-5.3c.1058839-.0329358.2161121-.0497902.327-.05.8273696.0998329 1.5053905.7036703 1.7 1.514.3836661.8834724.016841 1.9131185-.839 2.355-.380943.1032752-.7881322.0298416-1.109-.2-.4418111-.3043465-.765569-.7513229-.917-1.266-.38151046-.8827102-.015593-1.9101609.838-2.353z"/><path fill="#e7eefb" id="Shape" d="m26.182 19.9c.181643.0314351.365657.04716.55.047 1.975 0 3.813-1.806 4.244-4.292.2249308-1.2054287.0581264-2.4512059-.476-3.555-.4968829-1.057044-1.4649997-1.8163295-2.61-2.047-2.182-.379-4.325 1.528-4.795 4.245-.2267083 1.2078725-.0591322 2.4566305.478 3.562.4985287 1.0540028 1.4658779 1.8103816 2.609 2.04zm-1.119-5.268c.259-1.49 1.263-2.632 2.263-2.632.07408-.0001294.1480291.0062282.221.019.5206366.1311072.952075.4943267 1.17.985.3364408.7212914.4372061 1.5302128.288 2.312-.277 1.6-1.408 2.8-2.482 2.615-.5212639-.1304979-.9530599-.4943876-1.17-.986-.3381661-.720415-.4396789-1.5293668-.29-2.311z"/><path fill="#e7eefb" id="Shape" d="m29.108 21.921c-.7325656 1.9367844.2290402 4.1025151 2.157 4.858.3013817.0940769.6152764.1419534.931.142.6617508-.0061149 1.3073877-.2048793 1.858-.572.8359325-.556394 1.4513518-1.3872102 1.74-2.349.7327823-1.9362274-.2278279-4.1017236-2.155-4.858-2.0164022-.4700917-4.0359749.7685736-4.531 2.779zm1.911.594c.322-1.036 1.257-1.706 2.026-1.465.8550453.4425765 1.2216102 1.4714923.839 2.355-.151431.5146771-.4751889.9616535-.917 1.266-.3208678.2298416-.728057.3032752-1.109.2-.8563791-.4419226-1.2232942-1.4722587-.839-2.356z"/></g></g></svg>