<svg width="24" height="24" xmlns="http://www.w3.org/2000/svg" fill-rule="evenodd" clip-rule="evenodd"><path d="M20.5 17.003c1.932 0 3.5 1.568 3.5 3.5 0 1.931-1.568 3.5-3.5 3.5s-3.5-1.569-3.5-3.5c0-1.932 1.568-3.5 3.5-3.5zm-7.5 6.997h-2v-4.083c-.834-.141-1.599-.47-2.278-.917-.703.785-1.65 1.348-2.722 1.566v3.434h-2v-3.434c-2.281-.464-4-2.482-4-4.899 0-1.302.018-1.023 4.23-11.154.013 0 .186-.513.77-.513.581 0 .757.511.771.511.734 1.763 1.341 3.2 1.844 4.387.751-1.803 1.85-4.406 3.461-8.283.016 0 .223-.615.924-.615.697 0 .909.612.925.612 4.656 11.173 5.075 11.547 5.075 13.388 0 2.97-2.164 5.44-5 5.917v4.083zm7.5-5.247c.966 0 1.75.784 1.75 1.75 0 .965-.784 1.75-1.75 1.75s-1.75-.785-1.75-1.75c0-.966.784-1.75 1.75-1.75zm-15.5-.025c-.567 0-3-.422-3-3.061 0-.618 0-.641 2.029-5.484l.974-2.328 1.224 2.891.326.768c-.547 1.428-.553 1.744-.553 2.486 0 1.394.49 2.668 1.289 3.686-.762.85-1.91 1.042-2.289 1.042zm7.668-.784c-.613.104-.834.084-1.336 0-1.932-.324-3.332-1.983-3.332-3.944 0-.833 0-.849 2.46-6.721.437-1.043.948-2.26 1.543-3.688.732 1.745 1.337 3.17 1.836 4.345 2.06 4.852 2.161 5.135 2.161 6.064 0 1.961-1.401 3.619-3.332 3.944z"/></svg>