<?xml version="1.0"?>
<svg xmlns="http://www.w3.org/2000/svg" xmlns:xlink="http://www.w3.org/1999/xlink" xmlns:svgjs="http://svgjs.com/svgjs" version="1.1" width="512" height="512" x="0" y="0" viewBox="0 0 512 512" style="enable-background:new 0 0 512 512" xml:space="preserve" class=""><g><g xmlns="http://www.w3.org/2000/svg"><g><path d="m254.978 7.5c-98.583 0-178.5 79.917-178.5 178.5 0 27.912 6.406 54.327 17.828 77.855l97.663 201.176c11.342 23.362 35.294 39.468 63.008 39.468 20.507 0 38.954-8.818 51.756-22.869 4.5-4.939 8.303-10.524 11.252-16.6l97.663-201.176c11.422-23.529 17.829-49.944 17.829-77.855 0-80.587-53.403-148.7-126.75-170.883-16.379-4.953-33.753-7.616-51.749-7.616z" fill="#6d9773" data-original="#ff8e9e" style="" class=""/><path d="m198.735 263.855c-11.422-23.529-17.829-49.944-17.829-77.855 0-80.585 53.405-148.699 126.75-170.883-16.381-4.955-33.752-7.617-51.75-7.617-98.583 0-178.5 79.917-178.5 178.5 0 27.912 6.406 54.327 17.829 77.855l97.663 201.176c11.341 23.362 35.294 39.468 63.008 39.468 20.507 0 38.954-8.818 51.756-22.868-4.5-4.938-8.315-10.524-11.265-16.6z" fill="#6d9773" data-original="#ea5b70" style="" class=""/></g><g><g fill="#fce3a0"><path d="m327.639 195.684-9.418-17.021c-12.466-22.53-36.328-36.521-62.147-36.521-25.247 0-48.501 13.384-61.187 35.136l-10.328 17.71c-18.087 31.218 4.449 70.881 41.121 70.881 11.483 0 22.186-4.065 30.394-10.83 8.208 6.765 18.565 10.83 30.048 10.83 36.232 0 58.95-38.882 41.517-70.185z" fill="#ffba00" data-original="#fce3a0" style="" class=""/><path d="m243.491 91.446c0 16.773-14.009 30.371-31.29 30.371s-31.29-13.597-31.29-30.371 14.009-37.69 31.29-37.69 31.29 20.916 31.29 37.69z" fill="#ffba00" data-original="#fce3a0" style="" class=""/><path d="m178.486 152.602c0 16.773-14.009 30.371-31.29 30.371s-31.29-13.597-31.29-30.371 14.009-37.69 31.29-37.69 31.29 20.917 31.29 37.69z" fill="#ffba00" data-original="#fce3a0" style="" class=""/><path d="m395.907 152.602c0 16.773-14.009 30.371-31.29 30.371s-31.29-13.597-31.29-30.371 14.009-37.69 31.29-37.69 31.29 20.917 31.29 37.69z" fill="#ffba00" data-original="#fce3a0" style="" class=""/><path d="m329.424 91.446c0 16.773-14.009 30.371-31.29 30.371s-31.29-13.597-31.29-30.371 14.009-37.69 31.29-37.69 31.29 20.916 31.29 37.69z" fill="#ffba00" data-original="#fce3a0" style="" class=""/></g></g><g><path d="m255.907 0c-53.558 0-104.544 23.111-139.886 63.407-2.731 3.114-2.421 7.853.693 10.584s7.853 2.422 10.584-.693c32.494-37.049 79.37-58.298 128.609-58.298 126.572 0 208.685 132.77 153.925 245.58l-97.663 201.176c-10.635 21.9-32.761 35.244-56.262 35.244-24.15 0-45.708-13.505-56.262-35.244l-97.663-201.176c-25.003-51.508-22.796-113.829 8.262-164.199 2.174-3.525 1.078-8.146-2.447-10.32-3.526-2.174-8.146-1.08-10.32 2.447-32.499 52.704-37.299 120.3-8.988 178.623l97.663 201.176c12.884 26.543 40.264 43.693 69.755 43.693 29.244 0 56.622-16.639 69.756-43.693l97.663-201.176c59.664-122.917-29.972-267.131-167.419-267.131z" fill="#000000" data-original="#000000" style="" class=""/><path d="m188.41 173.5-10.339 17.729c-21.177 36.547 5.608 82.141 47.61 82.141 10.854 0 21.44-3.171 30.378-9.021 8.937 5.919 19.221 9.021 30.064 9.021 14.171 0 27.565-5.302 37.713-14.93 3.005-2.851 3.13-7.598.279-10.603s-7.597-3.129-10.603-.279c-5.199 4.933-14.17 10.812-27.389 10.812-9.3 0-18.041-3.153-25.278-9.118-2.771-2.283-6.77-2.283-9.54 0-7.134 5.879-16.234 9.118-25.624 9.118-30.812 0-49.803-33.433-34.643-59.603l10.329-17.71c11.3-19.377 32.263-31.414 54.708-31.414 23.142 0 44.44 12.512 55.584 32.652l9.427 17.038c4.692 8.427 6.014 17.578 4.355 26.371-.769 4.07 1.909 7.993 5.979 8.761 4.066.768 7.992-1.908 8.761-5.979 2.319-12.301.393-24.987-5.979-36.432l-9.417-17.021c-13.785-24.914-40.113-40.391-68.709-40.391-27.761 0-53.689 14.889-67.666 38.858z" fill="#000000" data-original="#000000" style="" class=""/><path d="m212.201 46.256c-21.846 0-38.79 24.292-38.79 45.19 0 20.882 17.401 37.871 38.79 37.871s38.79-16.989 38.79-37.871c0-20.898-16.945-45.19-38.79-45.19zm0 68.06c-13.118 0-23.79-10.26-23.79-22.871 0-13.308 11.201-30.19 23.79-30.19s23.79 16.882 23.79 30.19c0 12.612-10.672 22.871-23.79 22.871z" fill="#000000" data-original="#000000" style="" class=""/><path d="m147.196 107.412c-21.845 0-38.79 24.292-38.79 45.19 0 20.882 17.401 37.871 38.79 37.871s38.79-16.989 38.79-37.871c0-20.898-16.944-45.19-38.79-45.19zm0 68.061c-13.118 0-23.79-10.26-23.79-22.871 0-13.308 11.201-30.19 23.79-30.19s23.79 16.882 23.79 30.19c0 12.611-10.672 22.871-23.79 22.871z" fill="#000000" data-original="#000000" style="" class=""/><path d="m364.617 190.473c21.389 0 38.79-16.989 38.79-37.871 0-20.898-16.944-45.19-38.79-45.19-21.845 0-38.789 24.292-38.789 45.19 0 20.882 17.4 37.871 38.789 37.871zm0-68.061c12.589 0 23.79 16.882 23.79 30.19 0 12.611-10.672 22.871-23.79 22.871-13.117 0-23.789-10.26-23.789-22.871 0-13.308 11.2-30.19 23.789-30.19z" fill="#000000" data-original="#000000" style="" class=""/><path d="m298.134 46.256c-21.845 0-38.79 24.292-38.79 45.19 0 20.882 17.401 37.871 38.79 37.871s38.79-16.989 38.79-37.871c0-20.898-16.944-45.19-38.79-45.19zm0 68.06c-13.118 0-23.79-10.26-23.79-22.871 0-13.308 11.201-30.19 23.79-30.19s23.79 16.882 23.79 30.19c0 12.612-10.672 22.871-23.79 22.871z" fill="#000000" data-original="#000000" style="" class=""/></g></g></g></svg>
