<svg width="24" height="24" id="Layer_3" enable-background="new 0 0 64 64" viewBox="0 0 64 64"  xmlns="http://www.w3.org/2000/svg"><g><path d="m18.5 11c-5.042 0-13.5.39-13.5 3s8.458 3 13.5 3 13.5-.39 13.5-3-8.458-3-13.5-3zm0 4c-5.479 0-9.085-.533-10.709-1 1.624-.467 5.23-1 10.709-1s9.085.533 10.709 1c-1.624.467-5.23 1-10.709 1z"/><path d="m60 11h-14-5-3.03c-1.689 0-3.439-.338-5.203-1.004-3.356-1.268-8.373-1.996-13.767-1.996-8.945 0-18 2.061-18 6 0 7.406 1.188 14.725 3.53 21.752l3.872 11.617c1.721 5.162 6.534 8.631 11.975 8.631 6.96 0 12.623-5.663 12.623-12.623v-9.157c0-5.637.586-11.284 1.728-16.807 1.096-.264 2.182-.413 3.242-.413h3.03 5 14c1.654 0 3-1.346 3-3s-1.346-3-3-3zm-29.857 36.551c-.422.131-.876.253-1.359.368-.182-.384-.349-.776-.485-1.183l-.52-1.56c.84-.157 1.622-.335 2.338-.532l.502 1.507c-.13.481-.283.95-.476 1.4zm-4.656 5.134c-.198.109-.403.203-.608.3-1.125-.527-2.135-1.239-2.998-2.101.636-.039 1.258-.087 1.867-.145.507.706 1.091 1.355 1.739 1.946zm-10.565-5.949-.278-.834c.753.039 1.518.064 2.295.076l.463 1.39c.188.565.428 1.104.69 1.63-.031.001-.061.002-.092.002-.675 0-1.346-.012-2.013-.034-.432-.695-.8-1.436-1.065-2.23zm-6.816-6.579c.837.16 1.723.299 2.654.415l1.032 3.097c-.917-.099-1.8-.218-2.636-.361zm9.278.835c.206.002.409.008.616.008.637 0 1.268-.011 1.893-.03l.987 2.963c-.815.038-1.649.059-2.494.064zm9.769-5.24.788 2.364c-.742.152-1.539.286-2.382.402l-.957-2.872c.839-.094 1.645-.205 2.412-.333.048.146.091.293.139.439zm-4.595.082.972 2.915c-.718.067-1.457.122-2.215.162l-.985-2.955c.756-.027 1.5-.068 2.228-.122zm1.422-2.128c-.298-.967-.576-1.939-.831-2.918.861-.072 1.697-.16 2.496-.267.238.961.492 1.919.772 2.869-.772.123-1.585.229-2.437.316zm-2.043.169c-.733.047-1.484.08-2.248.101-.31-.988-.602-1.982-.865-2.983.778-.01 1.546-.033 2.299-.07.25.989.518 1.974.814 2.952zm-4.339.119c-.865-.005-1.714-.031-2.548-.07-.314-1.006-.611-2.018-.877-3.037.843.05 1.706.086 2.59.102.256 1.007.532 2.01.835 3.005zm-4.689-.21c-.814-.07-1.605-.152-2.359-.254-.314-1.027-.605-2.06-.869-3.1.764.114 1.561.213 2.392.294.257 1.025.531 2.047.836 3.06zm.65 2.055 1.022 3.066c-.797-.044-1.575-.103-2.328-.177l-1.036-3.109c.758.088 1.538.162 2.342.22zm2.146.116c.757.027 1.521.045 2.295.045.079 0 .157-.002.235-.002l.996 2.989c-.407.008-.817.013-1.231.013-.432 0-.859-.007-1.285-.016zm6.263 4.919c.754-.048 1.492-.109 2.209-.183l.961 2.883c-.704.089-1.438.165-2.194.227zm4.232-.434c.837-.122 1.63-.264 2.375-.422l.911 2.733c-.71.193-1.495.366-2.343.518zm4.8.531-.479-1.437c.165-.049.322-.1.479-.151zm-1.11-3.332-.84-2.52c-.021-.063-.039-.127-.06-.19.63-.143 1.214-.3 1.756-.467.085.272.165.546.254.818v1.988c-.341.13-.712.254-1.11.371zm.29-5.09c-.545.171-1.14.33-1.789.474-.277-.932-.526-1.871-.762-2.813.651-.119 1.266-.251 1.846-.394.215.914.451 1.826.705 2.733zm-3.009-4.291c-.209-.956-.399-1.917-.565-2.881.668-.104 1.306-.221 1.912-.349.154.948.332 1.892.526 2.833-.582.145-1.207.278-1.873.397zm-1.98.305c-.805.104-1.651.188-2.522.256-.223-.979-.42-1.963-.599-2.952.877-.057 1.729-.133 2.55-.225.169.978.361 1.951.571 2.921zm-4.541.378c-.762.033-1.536.052-2.319.056-.229-.995-.43-1.996-.613-3 .093.001.189.003.282.003.694 0 1.379-.014 2.055-.035.176.996.375 1.988.595 2.976zm-4.37.033c-.89-.024-1.762-.065-2.607-.125-.23-1.01-.43-2.027-.613-3.047.869.07 1.745.12 2.617.152.179 1.012.38 2.018.603 3.02zm-4.691-.312c-.845-.093-1.648-.206-2.407-.334-.225-1.023-.42-2.053-.596-3.085.774.136 1.579.253 2.405.352.175 1.026.376 2.049.598 3.067zm-4.538-.767c-1.106-.271-2.045-.585-2.776-.934-.2-1.012-.372-2.029-.526-3.049.784.339 1.707.635 2.732.889.165 1.036.358 2.067.57 3.094zm.48 2.153c.251 1.045.522 2.085.821 3.118-1.024-.2-1.946-.433-2.747-.696-.301-1.044-.567-2.096-.816-3.152.805.274 1.729.517 2.742.73zm1.485 5.268c.047.145.089.291.137.436l.902 2.707c-.956-.141-1.854-.308-2.683-.501l-.946-2.839c-.04-.121-.074-.244-.114-.365.829.212 1.73.401 2.704.562zm3.926 5.481c.754.062 1.528.108 2.317.141l1.009 3.027c-.784-.021-1.551-.058-2.305-.108zm5.058 10.203c.44 0 .872-.01 1.305-.019.727.963 1.595 1.81 2.568 2.53-1.609-.497-3.055-1.367-4.243-2.517.123.001.246.006.37.006zm2.343-2.049c-.427-.691-.783-1.43-1.044-2.214l-.248-.745c.842-.014 1.672-.045 2.485-.091l.49 1.469c.167.5.37.981.594 1.45-.743.056-1.502.101-2.277.131zm3.579-2.215-.329-.988c.753-.069 1.482-.153 2.186-.249l.623 1.871c.109.326.234.644.368.959-.64.108-1.311.202-2.007.285-.335-.594-.621-1.219-.841-1.878zm7.375-19.584c-.105.043-.22.084-.332.126-.184-.909-.356-1.82-.502-2.735.403-.118.787-.241 1.141-.372-.118.993-.224 1.986-.307 2.981zm.612-5.279c-.455.23-1.039.457-1.734.673-.157-1.217-.276-2.439-.366-3.663.997-.234 1.912-.504 2.737-.805-.242 1.259-.45 2.525-.637 3.795zm-4.074-2.593c.097 1.26.226 2.518.392 3.77-.596.129-1.239.25-1.931.359-.181-1.273-.324-2.551-.431-3.833.677-.087 1.334-.185 1.97-.296zm-3.96.507c.11 1.299.255 2.594.438 3.884-.81.089-1.666.163-2.569.218-.196-1.307-.353-2.619-.471-3.937.888-.034 1.753-.092 2.602-.165zm-4.605.208c.117 1.331.271 2.658.464 3.979-.565.015-1.14.026-1.734.026-.209 0-.411-.005-.617-.007-.203-1.34-.365-2.686-.486-4.036.699.026 1.401.043 2.103.043.091 0 .179-.004.27-.005zm-4.39-.148c.117 1.37.274 2.736.473 4.096-.915-.039-1.792-.096-2.625-.17-.205-1.387-.367-2.781-.484-4.18.858.107 1.741.189 2.636.254zm-4.668-.559c.11 1.424.263 2.844.461 4.257-.864-.115-1.673-.246-2.411-.393-.2-1.448-.353-2.903-.458-4.363.761.189 1.569.353 2.408.499zm-4.454-1.104c.091 1.495.229 2.984.418 4.468-1.272-.366-2.209-.774-2.749-1.183-.169-1.505-.292-3.015-.358-4.532.738.468 1.644.885 2.689 1.247zm4.11 27.261c.842.122 1.712.228 2.619.31l.538 1.615c.169.507.374.996.602 1.47-.859-.062-1.692-.141-2.493-.239-.331-.587-.616-1.207-.835-1.864zm2.892 5.332c.704.06 1.423.106 2.155.142.788 1.051 1.723 1.977 2.79 2.736-1.894-.491-3.6-1.493-4.945-2.878zm14.425.745c-.394-.329-.76-.686-1.099-1.064.578-.083 1.134-.175 1.671-.276.105.164.213.326.326.485-.284.301-.581.589-.898.855zm12.815-36.522h-2.03c-1.602 0-3.243.277-4.891.795l-.055-.012c-.002.011-.004.022-.007.033-.319.101-.638.196-.957.317-3.139 1.186-7.899 1.867-13.06 1.867-10.505 0-16-2.604-16-4s5.495-4 16-4c5.161 0 9.921.681 13.06 1.867 1.99.752 3.978 1.133 5.91 1.133h2.03zm5 0h-3v-2h3zm15 0h-13v-2h13c.552 0 1 .449 1 1s-.448 1-1 1z"/></g></svg>